#!OML:ASF C:\Vicon Data\Big\jianyuan-13\jianyuan\Session 1\Capture.male.ASF
:FULLY-SPECIFIED
:DEGREES
1
root -7.733500 17.641600 -23.999400 8.982749 10.459144 4.920292
lowerback -13.122000 -4.428090 -5.705260 
upperback 2.168700 -4.964470 -0.012432 
thorax 10.234200 -2.705610 2.097260 
lowerneck -2.332160 -1.792550 3.336400 
upperneck 3.379420 -2.388160 -3.607080 
head 1.366520 -1.214400 -1.746360 
rclavicle 0.000000 0.000000 
rhumerus -56.352000 -24.056600 -70.316000 
rradius 29.478300 
rwrist 31.111400 
rhand -16.127800 -16.629300 
rfingers 0.000000 
rthumb 10.076800 -46.368000 
lclavicle 0.000000 0.000000 
lhumerus -23.047300 1.719840 94.553700 
lradius 57.269400 
lwrist -20.234100 
lhand -18.837100 3.683720 
lfingers 0.000000 
lthumb 7.462430 33.532100 
rfemur -39.436900 2.941620 8.551140 
rtibia 24.261400 
rfoot -6.695730 -16.741800 
rtoes -32.131900 
lfemur 9.046220 -6.062780 -25.085300 
ltibia 20.836000 
lfoot -13.364500 -1.216590 
ltoes -35.940500 
2
root -7.748274 17.658390 -23.857453 9.129982 10.427703 4.743475
lowerback -13.122576 -4.394513 -5.429286 
upperback 2.197536 -4.981593 0.150656 
thorax 10.257174 -2.704876 2.114660 
lowerneck -2.480170 -1.761036 3.282672 
upperneck 3.232742 -2.348018 -3.697257 
head 1.347036 -1.197930 -1.765755 
rclavicle 0.000000 0.000000 
rhumerus -56.214312 -24.111361 -69.974858 
rradius 29.165138 
rwrist 31.584250 
rhand -15.955141 -16.534001 
rfingers 0.000000 
rthumb 10.243378 -46.264550 
lclavicle 0.000000 0.000000 
lhumerus -23.301196 1.532339 94.738675 
lradius 57.711899 
lwrist -19.936634 
lhand -18.980224 3.629065 
lfingers 0.000000 
lthumb 7.324214 33.482302 
rfemur -39.394710 3.044304 8.687953 
rtibia 24.303082 
rfoot -5.849183 -16.561351 
rtoes -30.217456 
lfemur 8.971196 -5.810936 -24.719217 
ltibia 21.337344 
lfoot -12.492266 -0.778393 
ltoes -37.912773 
3
root -7.756649 17.663468 -23.785997 9.206181 10.340852 4.691734
lowerback -13.108527 -4.352614 -5.345954 
upperback 2.191595 -4.947763 0.223157 
thorax 10.238272 -2.686373 2.155788 
lowerneck -2.522485 -1.781821 3.255201 
upperneck 3.170601 -2.375698 -3.740355 
head 1.333515 -1.213213 -1.775050 
rclavicle 0.000000 0.000000 
rhumerus -56.192762 -24.020525 -69.892180 
rradius 29.104271 
rwrist 31.503541 
rhand -15.920947 -16.593912 
rfingers 0.000000 
rthumb 10.276398 -46.322830 
lclavicle 0.000000 0.000000 
lhumerus -23.363769 1.567273 94.921419 
lradius 57.778500 
lwrist -20.061447 
lhand -19.124676 3.690530 
lfingers 0.000000 
lthumb 7.184774 33.548571 
rfemur -39.378757 3.036769 8.796237 
rtibia 24.386081 
rfoot -5.428490 -16.417641 
rtoes -29.074943 
lfemur 8.904841 -5.647322 -24.592304 
ltibia 21.661224 
lfoot -12.102919 -0.571001 
ltoes -38.640140 
4
root -7.765232 17.669810 -23.715666 9.329424 10.289694 4.609009
lowerback -13.153427 -4.304887 -5.126609 
upperback 2.192373 -4.917252 0.215703 
thorax 10.240761 -2.658635 2.030022 
lowerneck -2.575723 -1.755118 3.289177 
upperneck 3.084787 -2.347339 -3.657207 
head 1.316912 -1.197650 -1.753353 
rclavicle 0.000000 0.000000 
rhumerus -56.167889 -24.144140 -69.804630 
rradius 28.966611 
rwrist 31.824525 
rhand -15.941643 -16.635624 
rfingers 0.000000 
rthumb 10.256443 -46.365550 
lclavicle 0.000000 0.000000 
lhumerus -23.427255 1.406294 94.904485 
lradius 57.894769 
lwrist -19.905934 
lhand -19.125324 3.724915 
lfingers 0.000000 
lthumb 7.184200 33.582942 
rfemur -39.417391 3.040840 8.950751 
rtibia 24.526531 
rfoot -4.999871 -16.242621 
rtoes -29.133135 
lfemur 8.751419 -5.495926 -24.403305 
ltibia 22.023752 
lfoot -11.661569 -0.405634 
ltoes -39.188004 
5
root -7.775214 17.677272 -23.643921 9.407492 10.190519 4.512946
lowerback -13.170760 -4.255778 -4.970373 
upperback 2.205494 -4.880715 0.257303 
thorax 10.251376 -2.633978 1.994871 
lowerneck -2.609722 -1.742009 3.328224 
upperneck 2.968527 -2.334142 -3.675815 
head 1.285969 -1.191225 -1.764938 
rclavicle 0.000000 0.000000 
rhumerus -56.079177 -24.146891 -69.736356 
rradius 28.827130 
rwrist 32.010865 
rhand -15.947966 -16.610384 
rfingers 0.000000 
rthumb 10.250353 -46.340582 
lclavicle 0.000000 0.000000 
lhumerus -23.499428 1.283201 94.948600 
lradius 58.017319 
lwrist -19.757025 
lhand -19.168362 3.793482 
lfingers 0.000000 
lthumb 7.142640 33.652902 
rfemur -39.443800 2.860972 9.267014 
rtibia 24.729978 
rfoot -4.357493 -15.812757 
rtoes -30.734841 
lfemur 8.605850 -5.240680 -24.207919 
ltibia 22.403451 
lfoot -11.176790 -0.152567 
ltoes -40.546360 
6
root -7.786125 17.683095 -23.570774 9.477974 10.027020 4.429465
lowerback -13.194828 -4.208528 -4.841084 
upperback 2.215737 -4.843151 0.310660 
thorax 10.266485 -2.610783 1.987282 
lowerneck -2.619418 -1.712185 3.310011 
upperneck 2.837986 -2.295946 -3.695320 
head 1.247635 -1.172795 -1.765702 
rclavicle 0.000000 0.000000 
rhumerus -55.981082 -24.077432 -69.696109 
rradius 28.705856 
rwrist 32.178295 
rhand -16.003507 -16.550579 
rfingers 0.000000 
rthumb 10.196772 -46.283438 
lclavicle 0.000000 0.000000 
lhumerus -23.581682 1.221277 95.015882 
lradius 58.136176 
lwrist -19.609328 
lhand -19.167159 3.868425 
lfingers 0.000000 
lthumb 7.143795 33.727807 
rfemur -39.495618 2.741695 9.577270 
rtibia 24.994924 
rfoot -3.742866 -15.350945 
rtoes -32.377415 
lfemur 8.505468 -5.040426 -24.060820 
ltibia 22.784014 
lfoot -10.743140 0.078809 
ltoes -40.928833 
7
root -7.795311 17.689023 -23.498829 9.568547 9.908848 4.351464
lowerback -13.233046 -4.169769 -4.684027 
upperback 2.215630 -4.820098 0.354833 
thorax 10.276148 -2.592217 1.950437 
lowerneck -2.573071 -1.672169 3.254100 
upperneck 2.663959 -2.243902 -3.657418 
head 1.187002 -1.146388 -1.739564 
rclavicle 0.000000 0.000000 
rhumerus -55.930750 -24.100107 -69.579082 
rradius 28.596433 
rwrist 32.538511 
rhand -16.021192 -16.501113 
rfingers 0.000000 
rthumb 10.179687 -46.234823 
lclavicle 0.000000 0.000000 
lhumerus -23.676120 1.162110 95.078051 
lradius 58.249223 
lwrist -19.435771 
lhand -19.262877 3.968331 
lfingers 0.000000 
lthumb 7.051420 33.830780 
rfemur -39.586694 2.549048 9.902776 
rtibia 25.313608 
rfoot -3.240255 -14.801808 
rtoes -32.961698 
lfemur 8.409514 -5.005747 -23.932128 
ltibia 23.165285 
lfoot -10.339428 0.260148 
ltoes -40.151789 
8
root -7.806683 17.696480 -23.427466 9.626484 9.756077 4.258527
lowerback -13.240865 -4.109719 -4.544446 
upperback 2.225466 -4.767014 0.396764 
thorax 10.278374 -2.560452 1.929440 
lowerneck -2.504890 -1.659057 3.277240 
upperneck 2.463000 -2.229074 -3.678991 
head 1.111747 -1.138493 -1.746540 
rclavicle 0.000000 0.000000 
rhumerus -55.876976 -24.131644 -69.467080 
rradius 28.504487 
rwrist 32.852739 
rhand -15.912414 -16.487185 
rfingers 0.000000 
rthumb 10.284635 -46.215673 
lclavicle 0.000000 0.000000 
lhumerus -23.779429 1.148003 95.146998 
lradius 58.344880 
lwrist -19.408611 
lhand -19.393918 4.035528 
lfingers 0.000000 
lthumb 6.924914 33.902232 
rfemur -39.692380 2.269652 10.317468 
rtibia 25.677356 
rfoot -2.806384 -14.095605 
rtoes -32.759272 
lfemur 8.330361 -4.930466 -23.781763 
ltibia 23.554535 
lfoot -9.919504 0.451850 
ltoes -39.478718 
9
root -7.822126 17.704158 -23.355000 9.659760 9.492874 4.169372
lowerback -13.223674 -4.029432 -4.440734 
upperback 2.243059 -4.680667 0.424850 
thorax 10.274129 -2.514561 1.922496 
lowerneck -2.480264 -1.656996 3.405584 
upperneck 2.294391 -2.230412 -3.812126 
head 1.052343 -1.139677 -1.809665 
rclavicle 0.000000 0.000000 
rhumerus -55.737243 -24.011541 -69.528841 
rradius 28.409755 
rwrist 32.843297 
rhand -15.810773 -16.499604 
rfingers 0.000000 
rthumb 10.382748 -46.223272 
lclavicle 0.000000 0.000000 
lhumerus -23.906934 1.179263 95.170290 
lradius 58.455654 
lwrist -19.490038 
lhand -19.270063 3.977096 
lfingers 0.000000 
lthumb 7.044432 33.839866 
rfemur -39.821888 2.154640 10.698801 
rtibia 26.069335 
rfoot -2.529495 -13.473841 
rtoes -32.446839 
lfemur 8.248796 -4.684644 -23.630620 
ltibia 23.972192 
lfoot -9.468345 0.688997 
ltoes -39.491175 
10
root -7.829620 17.713304 -23.283988 9.775748 9.419150 4.133139
lowerback -13.231622 -4.015778 -4.320938 
upperback 2.218523 -4.686983 0.470092 
thorax 10.245313 -2.511535 1.903577 
lowerneck -2.433517 -1.631101 3.435081 
upperneck 2.137990 -2.196444 -3.915626 
head 0.995304 -1.123461 -1.845191 
rclavicle 0.000000 0.000000 
rhumerus -55.563457 -23.858232 -69.555854 
rradius 28.277671 
rwrist 32.749875 
rhand -15.835244 -16.496360 
rfingers 0.000000 
rthumb 10.359104 -46.221228 
lclavicle 0.000000 0.000000 
lhumerus -24.095425 1.101945 95.179898 
lradius 58.625799 
lwrist -19.300051 
lhand -19.197753 3.973190 
lfingers 0.000000 
lthumb 7.114228 33.833616 
rfemur -39.975928 1.942050 10.971519 
rtibia 26.454172 
rfoot -2.422921 -13.026609 
rtoes -32.338525 
lfemur 8.018991 -4.544895 -23.518669 
ltibia 24.450056 
lfoot -8.921468 1.023918 
ltoes -40.436636 
11
root -7.840066 17.722156 -23.210156 9.857575 9.258561 4.066678
lowerback -13.267549 -3.966511 -4.155187 
upperback 2.231536 -4.647268 0.470741 
thorax 10.262780 -2.483111 1.818332 
lowerneck -2.437015 -1.589997 3.477261 
upperneck 2.022125 -2.145531 -3.926436 
head 0.961029 -1.097806 -1.854131 
rclavicle 0.000000 0.000000 
rhumerus -55.436006 -23.907911 -69.503024 
rradius 28.177720 
rwrist 33.052742 
rhand -15.687127 -16.498464 
rfingers 0.000000 
rthumb 10.501978 -46.216168 
lclavicle 0.000000 0.000000 
lhumerus -24.212783 1.018061 95.173651 
lradius 58.689449 
lwrist -19.227984 
lhand -19.276765 4.066136 
lfingers 0.000000 
lthumb 7.037975 33.929094 
rfemur -40.080589 1.845941 11.275671 
rtibia 26.805865 
rfoot -2.377028 -12.637493 
rtoes -32.727858 
lfemur 7.808254 -4.205064 -23.370069 
ltibia 24.978352 
lfoot -8.351682 1.362176 
ltoes -41.916936 
